<svg width="58" height="58" viewBox="0 0 58 58" fill="none" xmlns="http://www.w3.org/2000/svg">
<path d="M29 57C44.464 57 57 44.464 57 29C57 13.536 44.464 0.999992 29 0.999992C13.536 0.999992 1 13.536 1 29C1 44.464 13.536 57 29 57Z" fill="url(#paint0_linear_48_125)"/>
<path d="M28.3196 9.46625L28.0177 9.68089C27.8114 9.82766 27.6421 9.95645 27.5289 10.0525C27.4745 10.0987 27.4234 10.1453 27.3878 10.1869C27.3751 10.2018 27.34 10.2431 27.3208 10.2992C27.3113 10.3272 27.2911 10.4006 27.3261 10.4848C27.367 10.5832 27.4507 10.6234 27.504 10.6364C27.5513 10.6479 27.59 10.6427 27.6048 10.6403C27.6234 10.6373 27.6382 10.6329 27.647 10.63C27.6645 10.6242 27.679 10.6176 27.6873 10.6135C27.7051 10.6049 27.723 10.5946 27.7383 10.5855C27.7701 10.5665 27.8099 10.5406 27.8537 10.5109C27.931 10.4586 28.0288 10.3892 28.1334 10.3121C28.0688 10.6426 27.9774 11.1032 27.8651 11.664C27.6277 12.8499 27.2971 14.4823 26.9308 16.2748C23.0619 35.2081 20.7118 47.7051 20.2304 51.9151C20.2135 52.0626 20.2009 52.1971 20.1942 52.2956C20.191 52.3438 20.1888 52.3879 20.1888 52.4217C20.1888 52.4364 20.1891 52.46 20.1923 52.4839L20.1923 52.4845C20.1934 52.4926 20.1978 52.5254 20.2143 52.5615C20.2218 52.5778 20.2462 52.6281 20.3034 52.6665C20.3807 52.7183 20.4747 52.7207 20.5503 52.6852L28.3196 9.46625ZM28.3196 9.46625L28.6886 7.98135L28.9093 8.0362L28.6886 7.98135C28.8901 7.17034 29.0463 6.62228 29.2049 6.23445C29.3668 5.83892 29.5377 5.59372 29.7746 5.39986C30.0346 5.18722 30.3871 5.13447 30.6993 5.18484C31.0125 5.23537 31.3319 5.39677 31.5251 5.67428C31.6601 5.86815 31.7381 6.06066 31.7641 6.33747C31.7886 6.5979 31.7671 6.93451 31.7167 7.41689L31.4755 7.39168L31.7167 7.41689L31.6654 7.90708M28.3196 9.46625L31.6654 7.90708M31.5341 8.65474L30.5425 12.9427C26.9218 28.6 23.0838 44.3965 21.9287 48.3927C21.6907 49.2163 21.385 50.2484 21.1359 51.076C21.0114 51.4898 20.9008 51.8529 20.8199 52.1136C20.7795 52.2438 20.7462 52.3494 20.7221 52.4232C20.7102 52.4598 20.6999 52.4904 20.6919 52.5128C20.688 52.5235 20.6836 52.5356 20.6791 52.5465C20.6771 52.5513 20.673 52.561 20.6674 52.5718C20.6648 52.5767 20.6589 52.5878 20.6499 52.6008C20.6455 52.6072 20.6373 52.6184 20.6254 52.6309C20.6159 52.6409 20.5909 52.666 20.5505 52.685L31.5341 8.65474ZM31.5341 8.65474L31.9355 8.56218C33.3916 8.22643 34.6308 8.23734 36.1102 8.59989C37.4496 8.9282 38.4377 9.37625 39.6899 10.2267C41.1202 11.1982 42.8509 12.8654 43.6974 14.0815C45.2122 16.2579 45.6487 18.1484 45.1722 20.3313C44.8728 21.7034 44.3032 22.7461 43.3371 23.697C42.7748 24.2506 42.2925 24.5991 41.4997 24.9006C40.6921 25.2078 39.5616 25.4664 37.6956 25.824C35.2234 26.2977 34.4528 26.4985 33.4514 26.9465C32.5763 27.338 31.8984 27.8301 31.428 28.4388C30.9557 29.0501 30.7034 29.7656 30.6599 30.5835C30.5763 32.1588 31.2525 33.8314 32.5743 35.4362C33.409 36.4496 34.4328 37.2695 35.4923 37.7651C35.7892 37.904 36.2723 38.051 36.7701 38.1705C37.2711 38.2908 37.8092 38.3885 38.2229 38.4229C40.3615 38.6006 42.599 38.033 44.1241 36.908C44.8236 36.3921 45.3241 35.7223 45.5259 34.9975L45.666 34.4944L45.1928 34.335L45.0062 34.8049C44.6657 35.6624 44.0587 36.2776 42.9806 36.8089C40.586 37.9892 37.3745 37.9556 35.4091 36.7623C34.3636 36.1275 33.4412 35.1714 32.7825 34.1108C32.1227 33.0484 31.7391 31.8998 31.7456 30.8848C31.7486 30.4272 31.8157 30.0635 31.9628 29.7296C32.1105 29.3942 32.3458 29.0731 32.7073 28.7105C33.5389 27.8766 34.395 27.5459 37.7895 26.884C40.6945 26.3175 41.7008 26.0631 42.5111 25.6667C43.9887 24.944 45.2755 23.52 45.9488 21.879C46.1131 21.4785 46.2674 20.8304 46.3731 20.2017C46.4786 19.5749 46.5425 18.9285 46.5104 18.5323C46.2884 15.7872 44.7361 13.2025 41.9439 10.8315C38.696 8.07363 35.3759 7.05429 31.9926 7.83189L31.6654 7.90708M31.5341 8.65474L31.6654 7.90708M20.3373 52.2328L20.3375 52.2327L20.3373 52.2328ZM20.3373 52.2328C20.3725 52.2162 20.4119 52.2079 20.4517 52.2092L20.3373 52.2328ZM29.5485 8.71639C29.6515 8.66784 29.7691 8.61075 29.8922 8.54919L30.4657 8.26244L30.5272 7.85861C30.5935 7.42385 30.6282 7.13463 30.6367 6.9295C30.6451 6.7253 30.6262 6.62592 30.6006 6.56079L30.6006 6.56079C30.578 6.50345 30.5541 6.48041 30.5424 6.47215C30.533 6.46552 30.5227 6.46157 30.5039 6.46314C30.4561 6.46713 30.3453 6.51311 30.2158 6.68693M29.5485 8.71639C29.5918 8.51826 29.6578 8.26639 29.7343 8.00404C29.82 7.7101 29.9174 7.40827 30.008 7.16098C30.0534 7.03718 30.0962 6.92943 30.1341 6.84424C30.1743 6.75406 30.2023 6.70496 30.2158 6.68693M29.5485 8.71639C29.4947 8.74173 29.4448 8.76475 29.4002 8.78486C29.3467 8.80903 29.3023 8.82828 29.2686 8.84212L29.5485 8.71639ZM30.2158 6.68693L30.0153 6.53753L30.2158 6.68693C30.2158 6.68693 30.2158 6.68693 30.2158 6.68693ZM27.7678 10.512C27.768 10.5118 27.7682 10.5115 27.7684 10.5113L27.7678 10.512ZM29.4531 11.963L29.5332 12.1998L29.4531 11.963C29.3906 11.9842 29.3576 11.9937 29.3359 11.9978C29.3331 11.9958 29.3295 11.9932 29.3251 11.9898C29.3006 11.9708 29.2678 11.9407 29.2141 11.8884C29.1572 11.8331 29.1252 11.7861 29.1048 11.7304C29.0831 11.6713 29.0681 11.5853 29.0724 11.4438C29.0812 11.1517 29.1678 10.6955 29.3504 9.90159L29.3504 9.90159L29.4462 9.48476L29.9378 9.24818C30.051 9.19372 30.1605 9.1442 30.2562 9.10357C30.2315 9.28367 30.19 9.51961 30.1377 9.77852C30.0217 10.3531 29.8584 11.0144 29.7236 11.3976C29.6257 11.6764 29.5681 11.8181 29.5211 11.8974C29.5 11.9329 29.4871 11.945 29.4825 11.9489C29.4792 11.9516 29.4733 11.9562 29.4531 11.963ZM29.2662 8.85588C29.2544 8.92582 29.2474 8.98369 29.2463 9.02609L29.2907 9.00475L29.3249 8.86263C29.3007 8.85681 29.2799 8.85576 29.2662 8.85588ZM29.2909 9.00464L29.3254 8.86275C29.3794 8.87587 29.4173 8.90423 29.4425 8.93166L29.2909 9.00464Z" fill="#9C125C" stroke="#9C125C" stroke-width="0.5"/>
<defs>
<linearGradient id="paint0_linear_48_125" x1="0.72001" y1="28.9998" x2="57.28" y2="28.9998" gradientUnits="userSpaceOnUse">
<stop offset="0.0163399" stop-color="#FDDCE5"/>
<stop offset="0.898693" stop-color="white"/>
</linearGradient>
</defs>
</svg>
