<svg width="145" height="145" viewBox="0 0 145 145" fill="none" xmlns="http://www.w3.org/2000/svg">
<circle cx="72.5" cy="72.5" r="72.5" fill="white"/>
<path d="M94.4398 132.625C94.3798 132.558 94.3528 132.493 94.343 132.467C94.3307 132.434 94.3242 132.407 94.3209 132.392C94.3143 132.361 94.312 132.336 94.311 132.324C94.309 132.299 94.3089 132.277 94.3089 132.266C94.309 132.24 94.3102 132.211 94.3117 132.184C94.3147 132.128 94.3202 132.051 94.3277 131.959C94.3428 131.772 94.367 131.506 94.3983 131.178C94.4611 130.522 94.5536 129.609 94.662 128.57C94.8789 126.492 95.1604 123.905 95.3981 121.846C96.5516 111.858 102.735 73.0452 109.275 34.7417L111.129 23.8796L111.133 23.8567L111.139 23.8341L111.807 21.3474L111.808 21.3402L111.811 21.333C112.149 20.2095 112.412 19.4479 112.704 18.9002C113.012 18.3235 113.353 17.9801 113.82 17.6831C114.481 17.263 115.314 17.201 116.039 17.3757C116.762 17.5499 117.469 17.9823 117.833 18.6658C118.17 19.2999 118.32 19.9879 118.312 21.0092C118.304 22.014 118.142 23.3753 117.835 25.3726L117.357 28.473L117.237 29.2502L117.235 29.2647L117.232 29.2791L117.126 29.7706L117.077 29.9994L117.072 30.0025M94.4398 132.625L94.8107 132.29L94.4394 132.624C94.4396 132.625 94.4397 132.625 94.4398 132.625ZM94.4398 132.625C94.5519 132.749 94.7275 132.817 94.9102 132.781C95.0456 132.754 95.1296 132.68 95.1562 132.656C95.2153 132.601 95.2492 132.543 95.258 132.528L95.2586 132.527C95.2842 132.484 95.3047 132.436 95.3181 132.405C95.3482 132.332 95.3836 132.235 95.4212 132.125C95.4975 131.901 95.5944 131.591 95.6942 131.247C98.5487 121.413 104.971 91.3506 114.015 45.5071C114.619 42.4447 115.179 39.5859 115.653 37.1676C115.851 36.1581 116.034 35.2254 116.199 34.3867C116.478 32.9624 116.706 31.8097 116.865 31.0119C116.945 30.6128 117.008 30.3039 117.052 30.0947C117.059 30.0611 117.066 30.0304 117.072 30.0025M117.072 30.0025L116.87 30.1082C116.985 30.0482 117.042 29.9599 117.053 29.9436C117.053 29.9431 117.054 29.9426 117.054 29.9423C117.073 29.9131 117.085 29.8884 117.09 29.8777C117.101 29.8547 117.107 29.8366 117.108 29.832L117.108 29.8319C117.112 29.8226 117.113 29.8162 117.113 29.8159C117.113 29.8158 117.113 29.8162 117.113 29.817C117.112 29.8224 117.108 29.8363 117.102 29.8622C117.094 29.8963 117.084 29.943 117.072 30.0025ZM95.5159 130.04C95.4112 130.419 95.3106 130.775 95.214 131.107C95.1353 131.379 95.0589 131.627 94.9941 131.825C95.0666 131.853 95.1311 131.898 95.182 131.955M95.5159 130.04L95.1817 131.954C95.1818 131.954 95.1819 131.955 95.182 131.955M95.5159 130.04C95.4732 130.461 95.4356 130.84 95.4044 131.163C95.4008 131.2 95.3972 131.237 95.3938 131.274C95.3625 131.6 95.3389 131.86 95.3245 132.039C95.3172 132.13 95.3125 132.195 95.3102 132.237L95.3091 132.261C95.3089 132.267 95.3089 132.269 95.3089 132.269L95.3089 132.269L95.3088 132.263C95.3087 132.259 95.3085 132.252 95.3076 132.242C95.307 132.234 95.305 132.212 95.2989 132.183C95.2958 132.169 95.2896 132.142 95.2776 132.111C95.268 132.086 95.2415 132.021 95.182 131.955M95.5159 130.04L95.182 131.955M115.841 21.0505C115.711 20.5275 115.494 20.288 115.354 20.215C115.293 20.1832 115.241 20.1782 115.189 20.1899C115.131 20.2028 115.039 20.2445 114.924 20.3624L114.924 20.3624C114.792 20.4987 114.651 20.718 114.476 21.1876C114.302 21.6589 114.108 22.3412 113.85 23.3731L113.541 24.6084L113.438 25.3639L113.423 25.4755L113.392 25.5226C113.388 25.5386 113.382 25.5598 113.375 25.5868C113.353 25.671 113.325 25.7921 113.291 25.9461C113.011 27.2284 112.43 30.4318 112.336 32.0361C112.294 32.7472 112.29 33.1276 112.322 33.3604C112.337 33.4673 112.357 33.5185 112.371 33.545C112.383 33.5684 112.401 33.5939 112.447 33.6341L112.116 34.0092L112.447 33.6341C112.566 33.7395 112.636 33.7963 112.688 33.8301C112.707 33.8427 112.719 33.8488 112.724 33.8514C112.733 33.851 112.757 33.8484 112.804 33.8358C112.882 33.8147 112.989 33.776 113.157 33.7097C113.346 33.6353 113.476 33.5524 113.586 33.4332C113.702 33.3086 113.822 33.1174 113.947 32.7904C114.205 32.1194 114.439 31.0104 114.772 29.0714L114.772 29.0714L114.997 27.7659L114.999 27.7538L115.001 27.7418L115.112 27.2481L115.12 27.2121L115.133 27.1778C115.144 27.1483 115.173 27.0466 115.214 26.8532C115.253 26.6719 115.299 26.4377 115.347 26.165C115.442 25.6203 115.548 24.9335 115.64 24.2333C115.732 23.5322 115.808 22.8238 115.847 22.2342C115.866 21.9392 115.876 21.6796 115.874 21.4685C115.872 21.2478 115.857 21.1132 115.841 21.0505ZM115.841 21.0505L116.326 20.9296M115.841 21.0505L116.326 20.9296M116.326 20.9296C116.57 21.9078 115.817 26.7917 115.6 27.3569L113.365 23.2518C113.881 21.1857 114.162 20.429 114.566 20.0139C115.231 19.3297 116.031 19.7461 116.326 20.9296ZM94.8437 131.791C94.8023 131.789 94.7598 131.792 94.7169 131.8C94.5837 131.826 94.5021 131.899 94.4783 131.921C94.4233 131.971 94.3958 132.022 94.3958 132.022C94.3915 132.029 94.3889 132.034 94.3881 132.036C94.387 132.038 94.3893 132.034 94.3952 132.019C94.4123 131.978 94.4392 131.906 94.4748 131.802C94.5446 131.597 94.6369 131.302 94.7339 130.968C94.8264 130.649 94.9226 130.309 95.0227 129.948C94.9823 130.346 94.9463 130.708 94.9158 131.021C94.8861 131.327 94.8617 131.588 94.8437 131.791ZM112.729 33.8532C112.729 33.8532 112.728 33.8529 112.727 33.8526L112.729 33.8532Z" fill="#9C125C"/>
<path d="M94.4398 132.625C94.3798 132.558 94.3528 132.493 94.343 132.467C94.3307 132.434 94.3242 132.407 94.3209 132.392C94.3143 132.361 94.312 132.336 94.311 132.324C94.309 132.299 94.3089 132.277 94.3089 132.266C94.309 132.24 94.3102 132.211 94.3117 132.184C94.3147 132.128 94.3202 132.051 94.3277 131.959C94.3428 131.772 94.367 131.506 94.3983 131.178C94.4611 130.522 94.5536 129.609 94.662 128.57C94.8789 126.492 95.1604 123.905 95.3981 121.846C96.5516 111.858 102.735 73.0452 109.275 34.7417L111.129 23.8796L111.133 23.8567L111.139 23.8341L111.807 21.3474L111.808 21.3402L111.811 21.333C112.149 20.2095 112.412 19.4479 112.704 18.9002C113.012 18.3235 113.353 17.9801 113.82 17.6831C114.481 17.263 115.314 17.201 116.039 17.3757C116.762 17.5499 117.469 17.9823 117.833 18.6658C118.17 19.2999 118.32 19.9879 118.312 21.0092C118.304 22.014 118.142 23.3753 117.835 25.3726L117.357 28.473L117.237 29.2502L117.235 29.2647L117.232 29.2791L117.126 29.7706L117.077 29.9994L117.072 30.0025M94.4398 132.625L94.8107 132.29L94.4394 132.624C94.4396 132.625 94.4397 132.625 94.4398 132.625ZM94.4398 132.625C94.5519 132.749 94.7275 132.817 94.9102 132.781C95.0456 132.754 95.1296 132.68 95.1562 132.656C95.2153 132.601 95.2492 132.543 95.258 132.528L95.2586 132.527C95.2842 132.484 95.3047 132.436 95.3181 132.405C95.3482 132.332 95.3836 132.235 95.4212 132.125C95.4975 131.901 95.5944 131.591 95.6942 131.247C98.5487 121.413 104.971 91.3506 114.015 45.5071C114.619 42.4447 115.179 39.5859 115.653 37.1676C115.851 36.1581 116.034 35.2254 116.199 34.3867C116.478 32.9624 116.706 31.8097 116.865 31.0119C116.945 30.6128 117.008 30.3039 117.052 30.0947C117.059 30.0611 117.066 30.0304 117.072 30.0025M117.072 30.0025L116.87 30.1082C116.985 30.0482 117.042 29.9599 117.053 29.9436C117.053 29.9431 117.054 29.9426 117.054 29.9423C117.073 29.9131 117.085 29.8884 117.09 29.8777C117.101 29.8547 117.107 29.8366 117.108 29.832L117.108 29.8319C117.112 29.8226 117.113 29.8162 117.113 29.8159C117.113 29.8158 117.113 29.8162 117.113 29.817C117.112 29.8224 117.108 29.8363 117.102 29.8622C117.094 29.8963 117.084 29.943 117.072 30.0025ZM95.5159 130.04C95.4112 130.419 95.3106 130.775 95.214 131.107C95.1353 131.379 95.0589 131.627 94.9941 131.825C95.0666 131.853 95.1311 131.898 95.182 131.955M95.5159 130.04L95.1817 131.954C95.1818 131.954 95.1819 131.955 95.182 131.955M95.5159 130.04C95.4732 130.461 95.4356 130.84 95.4044 131.163C95.4008 131.2 95.3972 131.237 95.3938 131.274C95.3625 131.6 95.3389 131.86 95.3245 132.039C95.3172 132.13 95.3125 132.195 95.3102 132.237L95.3091 132.261C95.3089 132.267 95.3089 132.269 95.3089 132.269L95.3089 132.269L95.3088 132.263C95.3087 132.259 95.3085 132.252 95.3076 132.242C95.307 132.234 95.305 132.212 95.2989 132.183C95.2958 132.169 95.2896 132.142 95.2776 132.111C95.268 132.086 95.2415 132.021 95.182 131.955M95.5159 130.04L95.182 131.955M115.841 21.0505C115.711 20.5275 115.494 20.288 115.354 20.215C115.293 20.1832 115.241 20.1782 115.189 20.1899C115.131 20.2028 115.039 20.2445 114.924 20.3624L114.924 20.3624C114.792 20.4987 114.651 20.718 114.476 21.1876C114.302 21.6589 114.108 22.3412 113.85 23.3731L113.541 24.6084L113.438 25.3639L113.423 25.4755L113.392 25.5226C113.388 25.5386 113.382 25.5598 113.375 25.5868C113.353 25.671 113.325 25.7921 113.291 25.9461C113.011 27.2284 112.43 30.4318 112.336 32.0361C112.294 32.7472 112.29 33.1276 112.322 33.3604C112.337 33.4673 112.357 33.5185 112.371 33.545C112.383 33.5684 112.401 33.5939 112.447 33.6341L112.116 34.0092L112.447 33.6341C112.566 33.7395 112.636 33.7963 112.688 33.8301C112.707 33.8427 112.719 33.8488 112.724 33.8514C112.733 33.851 112.757 33.8484 112.804 33.8358C112.882 33.8147 112.989 33.776 113.157 33.7097C113.346 33.6353 113.476 33.5524 113.586 33.4332C113.702 33.3086 113.822 33.1174 113.947 32.7904C114.205 32.1194 114.439 31.0104 114.772 29.0714L114.772 29.0714L114.997 27.7659L114.999 27.7538L115.001 27.7418L115.112 27.2481L115.12 27.2121L115.133 27.1778C115.144 27.1483 115.173 27.0466 115.214 26.8532C115.253 26.6719 115.299 26.4377 115.347 26.165C115.442 25.6203 115.548 24.9335 115.64 24.2333C115.732 23.5322 115.808 22.8238 115.847 22.2342C115.866 21.9392 115.876 21.6796 115.874 21.4685C115.872 21.2478 115.857 21.1132 115.841 21.0505ZM115.841 21.0505L116.326 20.9296M115.841 21.0505L116.326 20.9296M116.326 20.9296C116.57 21.9078 115.817 26.7917 115.6 27.3569L113.365 23.2518C113.881 21.1857 114.162 20.429 114.566 20.0139C115.231 19.3297 116.031 19.7461 116.326 20.9296ZM94.8437 131.791C94.8023 131.789 94.7598 131.792 94.7169 131.8C94.5837 131.826 94.5021 131.899 94.4783 131.921C94.4233 131.971 94.3958 132.022 94.3958 132.022C94.3915 132.029 94.3889 132.034 94.3881 132.036C94.387 132.038 94.3893 132.034 94.3952 132.019C94.4123 131.978 94.4392 131.906 94.4748 131.802C94.5446 131.597 94.6369 131.302 94.7339 130.968C94.8264 130.649 94.9226 130.309 95.0227 129.948C94.9823 130.346 94.9463 130.708 94.9158 131.021C94.8861 131.327 94.8617 131.588 94.8437 131.791ZM112.729 33.8532C112.729 33.8532 112.728 33.8529 112.727 33.8526L112.729 33.8532Z" stroke="black"/>
<path d="M94.4398 132.625C94.3798 132.558 94.3528 132.493 94.343 132.467C94.3307 132.434 94.3242 132.407 94.3209 132.392C94.3143 132.361 94.312 132.336 94.311 132.324C94.309 132.299 94.3089 132.277 94.3089 132.266C94.309 132.24 94.3102 132.211 94.3117 132.184C94.3147 132.128 94.3202 132.051 94.3277 131.959C94.3428 131.772 94.367 131.506 94.3983 131.178C94.4611 130.522 94.5536 129.609 94.662 128.57C94.8789 126.492 95.1604 123.905 95.3981 121.846C96.5516 111.858 102.735 73.0452 109.275 34.7417L111.129 23.8796L111.133 23.8567L111.139 23.8341L111.807 21.3474L111.808 21.3402L111.811 21.333C112.149 20.2095 112.412 19.4479 112.704 18.9002C113.012 18.3235 113.353 17.9801 113.82 17.6831C114.481 17.263 115.314 17.201 116.039 17.3757C116.762 17.5499 117.469 17.9823 117.833 18.6658C118.17 19.2999 118.32 19.9879 118.312 21.0092C118.304 22.014 118.142 23.3753 117.835 25.3726L117.357 28.473L117.237 29.2502L117.235 29.2647L117.232 29.2791L117.126 29.7706L117.077 29.9994L117.072 30.0025M94.4398 132.625L94.8107 132.29L94.4394 132.624C94.4396 132.625 94.4397 132.625 94.4398 132.625ZM94.4398 132.625C94.5519 132.749 94.7275 132.817 94.9102 132.781C95.0456 132.754 95.1296 132.68 95.1562 132.656C95.2153 132.601 95.2492 132.543 95.258 132.528L95.2586 132.527C95.2842 132.484 95.3047 132.436 95.3181 132.405C95.3482 132.332 95.3836 132.235 95.4212 132.125C95.4975 131.901 95.5944 131.591 95.6942 131.247C98.5487 121.413 104.971 91.3506 114.015 45.5071C114.619 42.4447 115.179 39.5859 115.653 37.1676C115.851 36.1581 116.034 35.2254 116.199 34.3867C116.478 32.9624 116.706 31.8097 116.865 31.0119C116.945 30.6128 117.008 30.3039 117.052 30.0947C117.059 30.0611 117.066 30.0304 117.072 30.0025M117.072 30.0025L116.87 30.1082C116.985 30.0482 117.042 29.9599 117.053 29.9436C117.053 29.9431 117.054 29.9426 117.054 29.9423C117.073 29.9131 117.085 29.8884 117.09 29.8777C117.101 29.8547 117.107 29.8366 117.108 29.832L117.108 29.8319C117.112 29.8226 117.113 29.8162 117.113 29.8159C117.113 29.8158 117.113 29.8162 117.113 29.817C117.112 29.8224 117.108 29.8363 117.102 29.8622C117.094 29.8963 117.084 29.943 117.072 30.0025ZM95.5159 130.04C95.4112 130.419 95.3106 130.775 95.214 131.107C95.1353 131.379 95.0589 131.627 94.9941 131.825C95.0666 131.853 95.1311 131.898 95.182 131.955M95.5159 130.04L95.1817 131.954C95.1818 131.954 95.1819 131.955 95.182 131.955M95.5159 130.04C95.4732 130.461 95.4356 130.84 95.4044 131.163C95.4008 131.2 95.3972 131.237 95.3938 131.274C95.3625 131.6 95.3389 131.86 95.3245 132.039C95.3172 132.13 95.3125 132.195 95.3102 132.237L95.3091 132.261C95.3089 132.267 95.3089 132.269 95.3089 132.269L95.3089 132.269L95.3088 132.263C95.3087 132.259 95.3085 132.252 95.3076 132.242C95.307 132.234 95.305 132.212 95.2989 132.183C95.2958 132.169 95.2896 132.142 95.2776 132.111C95.268 132.086 95.2415 132.021 95.182 131.955M95.5159 130.04L95.182 131.955M115.841 21.0505C115.711 20.5275 115.494 20.288 115.354 20.215C115.293 20.1832 115.241 20.1782 115.189 20.1899C115.131 20.2028 115.039 20.2445 114.924 20.3624L114.924 20.3624C114.792 20.4987 114.651 20.718 114.476 21.1876C114.302 21.6589 114.108 22.3412 113.85 23.3731L113.541 24.6084L113.438 25.3639L113.423 25.4755L113.392 25.5226C113.388 25.5386 113.382 25.5598 113.375 25.5868C113.353 25.671 113.325 25.7921 113.291 25.9461C113.011 27.2284 112.43 30.4318 112.336 32.0361C112.294 32.7472 112.29 33.1276 112.322 33.3604C112.337 33.4673 112.357 33.5185 112.371 33.545C112.383 33.5684 112.401 33.5939 112.447 33.6341L112.116 34.0092L112.447 33.6341C112.566 33.7395 112.636 33.7963 112.688 33.8301C112.707 33.8427 112.719 33.8488 112.724 33.8514C112.733 33.851 112.757 33.8484 112.804 33.8358C112.882 33.8147 112.989 33.776 113.157 33.7097C113.346 33.6353 113.476 33.5524 113.586 33.4332C113.702 33.3086 113.822 33.1174 113.947 32.7904C114.205 32.1194 114.439 31.0104 114.772 29.0714L114.772 29.0714L114.997 27.7659L114.999 27.7538L115.001 27.7418L115.112 27.2481L115.12 27.2121L115.133 27.1778C115.144 27.1483 115.173 27.0466 115.214 26.8532C115.253 26.6719 115.299 26.4377 115.347 26.165C115.442 25.6203 115.548 24.9335 115.64 24.2333C115.732 23.5322 115.808 22.8238 115.847 22.2342C115.866 21.9392 115.876 21.6796 115.874 21.4685C115.872 21.2478 115.857 21.1132 115.841 21.0505ZM115.841 21.0505L116.326 20.9296M115.841 21.0505L116.326 20.9296M116.326 20.9296C116.57 21.9078 115.817 26.7917 115.6 27.3569L113.365 23.2518C113.881 21.1857 114.162 20.429 114.566 20.0139C115.231 19.3297 116.031 19.7461 116.326 20.9296ZM94.8437 131.791C94.8023 131.789 94.7598 131.792 94.7169 131.8C94.5837 131.826 94.5021 131.899 94.4783 131.921C94.4233 131.971 94.3958 132.022 94.3958 132.022C94.3915 132.029 94.3889 132.034 94.3881 132.036C94.387 132.038 94.3893 132.034 94.3952 132.019C94.4123 131.978 94.4392 131.906 94.4748 131.802C94.5446 131.597 94.6369 131.302 94.7339 130.968C94.8264 130.649 94.9226 130.309 95.0227 129.948C94.9823 130.346 94.9463 130.708 94.9158 131.021C94.8861 131.327 94.8617 131.588 94.8437 131.791ZM112.729 33.8532C112.729 33.8532 112.728 33.8529 112.727 33.8526L112.729 33.8532Z" stroke="black"/>
<path d="M122.057 36.923C121.615 35.245 122.5 31 117.5 29.5M114.5 28C108 26.5 90.149 15.0821 87.069 25.3133C83.989 35.5444 75.1772 31.3133 68.569 31.3133C65.569 31.3133 58.6382 32.6281 54.569 39.3132C46.656 52.3132 49 44.5 43 52M67.5 134.5C74.5 129.5 68 108.5 61 116.5C54 124.5 52 100.5 50 98.5" stroke="#2C3E50" stroke-width="2"/>
<path d="M67.7041 77.3013C67.5278 77.6202 67.3428 77.9982 67.1586 78.371C67.1586 78.371 70.5106 89.1845 71.9765 96.2755C73.7783 104.991 74.9606 118.869 74.9606 118.869L88.1758 106.507L102.67 115.033C102.386 110.772 100.027 99.479 92.8651 88.3925C82.8122 86.4764 72.0138 83.0159 67.7041 77.3013Z" fill="#2C3E50"/>
<path d="M95.8491 81.2497C90.5915 81.8181 79.1383 81.8465 68.5661 75.7078C68.3252 76.1598 68.0242 76.7222 67.7041 77.3013C72.0138 83.0159 82.8122 86.4764 92.8651 88.3925C98.705 89.5056 104.293 90.0975 108.212 90.3073C109.917 68.1398 108.922 57.1982 108.212 54.4983C105.825 51.0879 99.3715 50.5195 96.4434 50.6616C97.4015 54.7121 98.1148 64.257 95.8491 81.2497Z" fill="#A6C5E5"/>
<path d="M95.8491 48.8511C86.9821 45.0997 73.9659 56.3824 68.5661 62.4926C69.1345 64.1627 69.9302 69.1438 68.5661 75.7078C79.1383 81.8465 90.5915 81.8181 95.8491 81.2497C98.1148 64.257 97.4015 54.7121 96.4434 50.6616C96.2477 49.8346 96.0419 49.2366 95.8491 48.8511Z" fill="#9C125C"/>
<path d="M68.5661 62.4926C63.1095 61.3852 57.0657 62.0312 54.7258 62.4926C53.2027 66.1598 54.0912 72.8307 54.7258 75.7078C54.8438 76.1979 55.0593 76.8529 55.3065 77.5062C55.3624 77.6542 55.42 77.802 55.4784 77.9479C55.9287 79.0718 56.4295 80.0761 56.6298 80.0761C56.9708 80.0761 60.1822 78.9393 61.7453 78.371C61.7453 78.371 65.582 80.0761 66.0083 80.0761C66.3064 80.0761 66.7302 79.2379 67.1586 78.371C67.3428 77.9982 67.5278 77.6202 67.7041 77.3013C68.0242 76.7222 68.3252 76.1598 68.5661 75.7078C69.9302 69.1438 69.1345 64.1627 68.5661 62.4926Z" fill="#2C3E50"/>
<path d="M54.7258 62.4926C49.326 56.3824 36.3098 45.0997 27.4428 48.8511C26.306 51.1247 24.7145 60.7874 27.4428 81.2497C32.7004 81.8181 44.1536 81.8465 54.7258 75.7078C54.0912 72.8307 53.2027 66.1598 54.7258 62.4926Z" fill="#9C125C"/>
<path d="M27.4428 81.2497C25.1943 64.386 25.8798 54.8574 26.8268 50.7548C23.8987 50.6127 17.3288 51.1075 14.9415 54.5178C14.231 57.2177 13.2363 68.1594 14.9415 90.3268C25.532 89.7597 48.3201 86.4018 55.3065 77.5062C55.0593 76.8529 54.8438 76.1979 54.7258 75.7078C44.1536 81.8465 32.7004 81.8181 27.4428 81.2497Z" fill="#A6C5E5"/>
<path d="M34.4623 106.08L47.6775 118.443C47.6775 118.443 48.6603 105.62 50.2353 97.5543C51.7399 89.8486 55.4083 78.1709 55.4784 77.9479C55.42 77.802 55.3624 77.6542 55.3065 77.5062C50.7658 83.2878 39.5502 86.7301 29.3467 88.5874C22.1849 99.674 20.2524 110.346 19.9682 114.606L34.4623 106.08Z" fill="#2C3E50"/>
<path d="M68.5661 62.4926C73.9659 56.3824 86.9821 45.0997 95.8491 48.8511C96.0419 49.2366 96.2477 49.8346 96.4434 50.6616M68.5661 62.4926C63.1095 61.3852 57.0657 62.0312 54.7258 62.4926M68.5661 62.4926C69.1345 64.1627 69.9302 69.1438 68.5661 75.7078M68.5661 75.7078C79.1383 81.8465 90.5915 81.8181 95.8491 81.2497C98.1148 64.257 97.4015 54.7121 96.4434 50.6616M68.5661 75.7078C68.3252 76.1598 68.0242 76.7222 67.7041 77.3013M54.7258 62.4926C49.326 56.3824 36.3098 45.0997 27.4428 48.8511C26.306 51.1247 24.7145 60.7874 27.4428 81.2497M54.7258 62.4926C53.2027 66.1598 54.0912 72.8307 54.7258 75.7078M27.4428 81.2497C32.7004 81.8181 44.1536 81.8465 54.7258 75.7078M27.4428 81.2497C25.1943 64.386 25.8798 54.8574 26.8268 50.7548C23.8987 50.6127 17.3288 51.1075 14.9415 54.5178C14.231 57.2177 13.2363 68.1594 14.9415 90.3268C25.532 89.7597 48.3201 86.4018 55.3065 77.5062M54.7258 75.7078C54.8438 76.1979 55.0593 76.8529 55.3065 77.5062M96.4434 50.6616C99.3715 50.5195 105.825 51.0879 108.212 54.4983C108.922 57.1982 109.917 68.1398 108.212 90.3073C104.293 90.0975 98.705 89.5056 92.8651 88.3925M67.7041 77.3013C67.5278 77.6202 67.3428 77.9982 67.1586 78.371M67.7041 77.3013C72.0138 83.0159 82.8122 86.4764 92.8651 88.3925M55.3065 77.5062C55.3624 77.6542 55.42 77.802 55.4784 77.9479M55.3065 77.5062C55.3548 77.4447 55.2597 77.5683 55.3065 77.5062ZM55.3065 77.5062C50.7658 83.2878 39.5502 86.7301 29.3467 88.5874C22.1849 99.674 20.2524 110.346 19.9682 114.606L34.4623 106.08L47.6775 118.443C47.6775 118.443 48.6603 105.62 50.2353 97.5543C51.7399 89.8486 55.4083 78.1709 55.4784 77.9479M67.1586 78.371C66.7302 79.2379 66.3064 80.0761 66.0083 80.0761C65.582 80.0761 61.7453 78.371 61.7453 78.371C60.1822 78.9393 56.9708 80.0761 56.6298 80.0761C56.4295 80.0761 55.9287 79.0718 55.4784 77.9479M67.1586 78.371C67.1586 78.371 70.5106 89.1845 71.9765 96.2755C73.7783 104.991 74.9606 118.869 74.9606 118.869L88.1758 106.507L102.67 115.033C102.386 110.772 100.027 99.479 92.8651 88.3925M55.4795 77.9447C55.4795 77.9447 55.4791 77.9457 55.4784 77.9479" stroke="black" stroke-width="2"/>
<path d="M70.6976 74.5343C74.9606 77.0921 86.3001 79.9056 94.144 79.2235M70.2713 63.4505C75.6711 57.9087 88.0053 47.507 94.144 50.2353M69.4187 77.0921C74.108 80.3603 88.0905 87.4937 106.507 88.1758M96.7017 52.7931C97.5543 52.3668 100.709 52.2815 106.507 55.3509M52.3668 74.5559C48.1038 77.1136 36.7643 79.9272 28.9204 79.2451M52.7931 63.4721C47.3933 57.9303 35.0591 47.5286 28.9204 50.2569M53.6457 77.1137C48.9564 80.3819 34.9738 87.5153 16.5578 88.1974M26.3626 52.8147C25.51 52.3884 22.3554 52.3031 16.5578 55.3725M68.9924 79.6499C71.4081 84.3392 76.2395 97.8102 76.2395 114.18L87.7495 103.949L100.112 111.622C99.2595 107.359 96.1049 96.7018 90.3073 88.1758M53.2194 79.6499C50.8037 84.3392 45.9723 97.8102 45.9723 114.18L34.4623 103.949L22.0997 111.622C22.9522 107.359 26.1069 96.7018 31.9045 88.1758" stroke="black" stroke-linecap="round" stroke-dasharray="2 2"/>
</svg>
